                                                                      _______ Visit us at our Semi Public Bittorrent Community ________
  
http://p2pdl.com  _____________________________  http://p2pdl.com


Wrong 2012 BRRip 480p x264 AAC - VYTO


Genre: Comedy | Drama
Plot: Dolph Springer wakes up one morning to realize he has lost the love of his life, his dog, Paul.
During his quest to get Paul (and his life) back, Dolph radically changes the lives of others --
risking his sanity all the while.   
Director: Quentin Dupieux
Stars: Jack Plotnick, Eric Judor, Alexis Dziena.
Rated: N/a


Info: 
http://www.imdb.com/title/tt1901040/

Trailer:


Format                         : MPEG-4
File size                      : 352 MiB
Duration                       : 1h 33mn
Overall bit rate mode          : Variable
Overall bit rate               : 526 Kbps
Source                         : LIMITED.720p.BluRay.x264-GECKOS

Video
Format                         : AVC
Bit rate                       : 483 Kbps
Width                          : 720 pixels
Height                         : 384 pixels
Display aspect ratio           : 1.85:1
Frame rate mode                : Constant
Frame rate                     : 23.976 fps
Stream size                    : 323 MiB (92%)
Writing library                : x264 core 130 r2273

Audio
Format                         : AAC
Bit rate                       : 40.0 Kbps
Channel(s)                     : 2 channels
Channel positions              : Front: L R
Sampling rate                  : 44.1 KHz
Stream size                    : 26.7 MiB (8%)
Language                       : English

Subtitle                       : Yes(English)
 
http://ultraimg.com/images/u53L7.png 
http://ultraimg.com/images/cSq7o.png 
http://ultraimg.com/images/63gEV.png 
http://ultraimg.com/images/eQ7i3.png 
http://ultraimg.com/images/kMd3R.png 
http://ultraimg.com/images/ZaXWA.png 
http://ultraimg.com/images/8ThYW.png 
http://ultraimg.com/images/IF5AJ.png


----------------------------------------------------------------------------------------------------


Encoded using revolutionary 10bit encoding, which enables us to provide you more crispier 
and sharper images at small sizes, just make sure you follow our instructions without a fault.
Recommend to you to use latest version of VLC player. Install K-Lite Codec Pack or shark007 codecs
in case of any kind of problem in playback (For non-VLC Media Player users). Alternatively, install
Core AVC codecs, the fastest decoder that there is coupled with Community Center Codec Pack and play
on Windows Media Player Classic. Check sample to be sure.
Enjoy!

Encoder Notes:Looking For Early Access To Anything You Can Provide DVDScr, R5, DVDR, BluRay, Direct
Audio, Music Releases and Seedboxes. We require dedicated servers, so as to do more 
and fast releases of movies.
If You Got anything to offer please contact us at "contact@p2pdl.com".

Face book Fan Page:   
http://fbl.me/BC